<svg xmlns="http://www.w3.org/2000/svg" viewBox="8811 4901 100 97.275">
  <defs>
    <style>
      .cls-1 {
        fill: #fff;
      }
    </style>
  </defs>
  <g id="house_1_" data-name="house (1)" transform="translate(8811 4900.182)">
    <path id="Path_3" data-name="Path 3" class="cls-1" d="M14,42.849H37.333V26.182H14Zm3.333-3.333v-5H34v5ZM34,29.515v1.667H17.333V29.515Z" transform="translate(9.333 16.909)"/>
    <path id="Path_4" data-name="Path 4" class="cls-1" d="M14,40.182v20H37.333v-20Zm10,3.333v5H17.333v-5Zm-6.667,8.333H24v5H17.333Zm10,5v-5H34v5ZM34,48.515H27.333v-5H34Z" transform="translate(9.333 26.243)"/>
    <path id="Path_5" data-name="Path 5" class="cls-1" d="M32,42.849H55.333V26.182H32Zm3.333-3.333V37.849H52v1.667ZM52,29.515v5H35.333v-5Z" transform="translate(21.333 16.909)"/>
    <path id="Path_6" data-name="Path 6" class="cls-1" d="M98.333,79.758a1.666,1.666,0,0,0-1.667,1.667v1.667H95V81.425a1.667,1.667,0,0,0-3.333,0v1.667H90V49.418a6.649,6.649,0,0,0,9.35-6.6A6.7,6.7,0,0,0,96.813,38.1L54.537,5.03,50,.818l-4.428,4.12L3.188,38.1a6.664,6.664,0,0,0-.775,9.785A6.614,6.614,0,0,0,10,49.42V83.093H8.333V81.426a1.667,1.667,0,0,0-3.333,0v1.667H3.333V81.426a1.667,1.667,0,0,0-3.333,0v15a1.667,1.667,0,0,0,3.333,0V94.76H5v1.667a1.667,1.667,0,0,0,3.333,0V94.76H10v3.333H90V94.76h1.667v1.667a1.667,1.667,0,0,0,3.333,0V94.76h1.667v1.667a1.667,1.667,0,1,0,3.333,0v-15A1.667,1.667,0,0,0,98.333,79.758ZM4.853,45.613a3.332,3.332,0,0,1,.39-4.89l42.49-33.25L50,5.365l2.373,2.2,42.383,33.16a3.331,3.331,0,0,1-4.087,5.262L90,45.468h0L50,14.635,10.65,44.968l0,0L9.33,45.985A3.317,3.317,0,0,1,4.853,45.613ZM3.333,91.425v-5H5v5Zm5,0v-5H10v5Zm48.333,3.333v-25H73.333v25Zm30,0h-10V66.425H53.333V94.758h-40V47.106L50,18.841,86.667,47.106ZM90,91.425v-5h1.667v5Zm5,0v-5h1.667v5Z" transform="translate(0 0)"/>
  </g>
</svg>
