<?xml version="1.0" encoding="iso-8859-1"?>
<!-- Generator: Adobe Illustrator 19.0.0, SVG Export Plug-In . SVG Version: 6.00 Build 0)  -->
<svg xmlns="http://www.w3.org/2000/svg" xmlns:xlink="http://www.w3.org/1999/xlink" version="1.1" id="Capa_1" x="0px" y="0px" viewBox="0 0 512.002 512.002" style="enable-background:new 0 0 512.002 512.002;" xml:space="preserve" width="512px" height="512px">
<g>
	<g>
		<path d="M376.074,166.191c-5.112-42.333-23.787-80.683-54.006-110.903c-73.72-73.718-193.669-73.718-267.388,0    C24.471,85.498,5.797,123.836,0.677,166.155c-0.496,4.102,2.428,7.831,6.531,8.327c4.099,0.496,7.831-2.427,8.327-6.53    c4.714-38.963,21.909-74.261,49.729-102.08c67.882-67.882,178.336-67.884,246.22,0c27.829,27.828,45.025,63.138,49.731,102.114    c0.459,3.798,3.688,6.587,7.42,6.587c0.3,0,0.602-0.019,0.907-0.055C373.645,174.022,376.569,170.294,376.074,166.191z" fill="#FFFFFF"/>
	</g>
</g>
<g>
	<g>
		<path d="M299.017,78.34c-61.01-61.008-160.277-61.008-221.287,0c-61.008,61.009-61.008,160.277,0,221.286    c30.505,30.504,70.574,45.756,110.644,45.756s80.138-15.252,110.643-45.756C360.025,238.617,360.025,139.349,299.017,78.34z     M288.433,289.042c-55.171,55.174-144.945,55.173-200.118,0c-26.727-26.726-41.446-62.261-41.446-100.059    c0-37.798,14.719-73.334,41.446-100.06c27.589-27.59,63.819-41.38,100.06-41.38c36.232,0,72.476,13.797,100.059,41.38    c26.727,26.726,41.446,62.261,41.446,100.06C329.879,226.78,315.159,262.316,288.433,289.042z" fill="#FFFFFF"/>
	</g>
</g>
<g>
	<g>
		<path d="M504.596,448.692L386.905,331.001c-7.224-7.221-18.056-8.659-26.737-4.348l-22.11-22.111    c20.169-26.001,33.058-56.571,37.611-89.622c0.564-4.094-2.298-7.87-6.392-8.434c-4.087-0.561-7.869,2.298-8.434,6.392    c-4.471,32.446-17.669,62.298-38.419,87.223c-0.054,0.061-0.114,0.117-0.167,0.18c-2.593,3.111-5.278,6.122-8.014,8.989    c-0.002,0.002-0.004,0.004-0.006,0.006c-0.912,0.956-1.83,1.895-2.752,2.817c-0.976,0.976-1.962,1.933-2.955,2.881    c-0.647,0.616-1.309,1.227-1.97,1.838c-0.319,0.295-0.635,0.593-0.955,0.885c-0.832,0.757-1.675,1.506-2.526,2.251    c-0.153,0.134-0.305,0.27-0.458,0.403c-0.877,0.763-1.765,1.518-2.66,2.267c-68.332,57.142-170.53,53.642-234.697-10.525    c-27.128-27.128-44.206-61.503-49.385-99.411c-0.559-4.094-4.335-6.954-8.428-6.401c-4.094,0.559-6.96,4.332-6.401,8.428    c5.625,41.173,24.17,78.508,53.629,107.968c36.86,36.859,85.277,55.289,133.694,55.289c40.826,0,81.651-13.105,115.548-39.311    l22.117,22.117c-1.584,3.174-2.442,6.685-2.442,10.336c0,6.198,2.414,12.024,6.795,16.407l117.69,117.69    c4.383,4.382,10.21,6.796,16.407,6.796s12.024-2.414,16.405-6.796l23.7-23.699c0.001,0,0.001-0.001,0.001-0.001    C513.641,472.458,513.641,457.74,504.596,448.692z M315.43,328.996c1.133-1.03,2.258-2.073,3.372-3.135    c0.155-0.147,0.302-0.297,0.456-0.445c0.942-0.904,1.882-1.811,2.809-2.739c1.067-1.068,2.116-2.148,3.155-3.237    c0.029-0.03,0.058-0.062,0.087-0.092c1.041-1.092,2.066-2.196,3.078-3.308l20.333,20.332l-12.957,12.957L315.43,328.996z     M494.013,470.921l-23.701,23.7c-1.555,1.555-3.623,2.412-5.822,2.412c-2.2,0-4.268-0.856-5.823-2.413l-117.69-117.69    c-3.212-3.211-3.212-8.434,0-11.646l0.08-0.08l23.619-23.62c1.606-1.606,3.714-2.408,5.824-2.408c2.109,0,4.217,0.802,5.822,2.408    l117.691,117.69C497.223,462.487,497.223,467.71,494.013,470.921z" fill="#FFFFFF"/>
	</g>
</g>
<g>
	<g>
		<path d="M311.902,165.98L204.307,64.906c-7.068-6.64-18.144-6.643-25.214-0.001L71.496,165.98    c-7.4,6.952-7.764,18.629-0.813,26.027c3.368,3.585,7.93,5.644,12.846,5.798c0.197,0.006,0.394,0.009,0.59,0.009    c4.7,0,9.152-1.761,12.592-4.993l7.916-7.436v92.043c0,7.125,5.796,12.921,12.921,12.921h148.303    c7.125,0,12.921-5.796,12.921-12.921v-92.044l7.917,7.437c3.428,3.219,7.904,4.993,12.604,4.993c5.065,0,9.957-2.116,13.422-5.805    C319.667,184.609,319.303,172.933,311.902,165.98z M208.117,275.382h-32.835v-85.196h32.835V275.382z M263.805,275.382    L263.805,275.382h-40.721v-89.209c0-6.04-4.914-10.954-10.954-10.954h-40.861c-6.04,0-10.954,4.914-10.954,10.954v89.209h-40.72    V171.326l72.105-67.736l72.105,67.736V275.382z M301.806,181.761c-0.888,0.945-1.956,1.086-2.514,1.086    c-0.622,0-1.535-0.163-2.358-0.935L196.823,87.867c-2.88-2.705-7.366-2.705-10.247,0L86.464,181.913    c-0.907,0.852-1.938,0.946-2.467,0.933c-0.533-0.018-1.554-0.18-2.405-1.086c-0.851-0.905-0.949-1.934-0.933-2.467    c0.016-0.533,0.179-1.554,1.085-2.404L189.34,75.815c0.662-0.622,1.511-0.933,2.36-0.933c0.85,0,1.698,0.311,2.36,0.933    l107.595,101.074c0.905,0.851,1.068,1.872,1.085,2.405C302.757,179.826,302.658,180.855,301.806,181.761z" fill="#FFFFFF"/>
	</g>
</g>
<g>
</g>
<g>
</g>
<g>
</g>
<g>
</g>
<g>
</g>
<g>
</g>
<g>
</g>
<g>
</g>
<g>
</g>
<g>
</g>
<g>
</g>
<g>
</g>
<g>
</g>
<g>
</g>
<g>
</g>
</svg>
