<svg xmlns="http://www.w3.org/2000/svg" viewBox="6304 4162 100 85.856">
  <defs>
    <style>
      .cls-1 {
        fill: #fff;
      }
    </style>
  </defs>
  <g id="crane" transform="translate(6304 4135.885)">
    <path id="Path_1" data-name="Path 1" class="cls-1" d="M85.322,73.486V58.994a2.031,2.031,0,0,0-2.031-2.031H74.039V45.9h6.25a2.031,2.031,0,0,0,2.031-2.031V36.442a2.031,2.031,0,1,0-4.062,0v5.394H4.062V38.473H63.727a2.031,2.031,0,0,0,0-4.062H30.478V28.146a2.031,2.031,0,0,0-2.031-2.031H14.816a2.031,2.031,0,1,0,0,4.062h11.6v4.235H2.031A2.031,2.031,0,0,0,0,36.443v7.425A2.031,2.031,0,0,0,2.031,45.9H12.785V57.631h0v13.63h0v13.63h0V96.849a6.679,6.679,0,0,0-4.531,6.316v6.776a2.031,2.031,0,0,0,2.031,2.031h22.8a2.031,2.031,0,0,0,2.031-2.031v-6.776a6.681,6.681,0,0,0-4.639-6.352V84.9h0V57.632h0V45.9h39.5V56.963H60.724a2.031,2.031,0,0,0-2.031,2.031V73.486a2.031,2.031,0,0,0,2.031,2.031H83.291A2.031,2.031,0,0,0,85.322,73.486ZM26.416,82.864h-6.7l2.857-2.857A2.031,2.031,0,1,0,19.7,77.135l-2.857,2.857v-6.7h9.569v9.57Zm-9.569-23.2h6.7l-6.7,6.7v-6.7Zm2.872,9.569,6.7-6.7v6.7Zm6.7-13.631h-6.7l4.119-4.119a2.031,2.031,0,1,0-2.872-2.872l-4.119,4.119v-6.7h9.569V55.6ZM16.847,86.926h6.7l-6.7,6.7v-6.7ZM26.416,89.8v6.7h-6.7Zm4.639,18.111H12.316v-4.745a2.61,2.61,0,0,1,2.607-2.607H28.447a2.61,2.61,0,0,1,2.608,2.607ZM81.26,71.455h-18.5V61.025h18.5Z"/>
    <path id="Path_2" data-name="Path 2" class="cls-1" d="M264.1,243.862H241.272a2.031,2.031,0,0,0-2.031,2.031v9.383h-9.383a2.031,2.031,0,0,0-2.031,2.031v11.414a2.031,2.031,0,0,0,2.031,2.031H264.1a2.031,2.031,0,0,0,2.031-2.031V245.893A2.031,2.031,0,0,0,264.1,243.862Zm-2.031,11.414h-7.352v-7.352h7.352ZM243.3,247.924h7.352v7.352H243.3Zm-11.414,11.414h7.352v7.352h-7.352Zm11.414,0h7.352v7.352H243.3Zm18.766,7.352h-7.352v-7.352h7.352Z" transform="translate(-166.131 -158.781)"/>
  </g>
</svg>
