<svg xmlns="http://www.w3.org/2000/svg" viewBox="0 0 279.73 178.31"><defs><style>.cls-1{fill:#fff;}</style></defs><title>sell-icon</title><g id="Layer_2" data-name="Layer 2"><g id="Layer_1-2" data-name="Layer 1"><path class="cls-1" d="M26.67,27.37H138.51c3,0,5.51-1.77,5.51-3.95s-2.47-3.94-5.51-3.94H26.67c-3.05,0-5.52,1.76-5.52,3.94S23.62,27.37,26.67,27.37Z"/><path class="cls-1" d="M25.79,44.79H178c2.56,0,4.64-1.76,4.64-3.95S180.59,36.9,178,36.9H25.79c-2.56,0-4.64,1.76-4.64,3.94S23.23,44.79,25.79,44.79Z"/><path class="cls-1" d="M26.44,99.06h109.3c2.92,0,5.28-1.76,5.28-3.94s-2.36-4-5.28-4H26.44c-2.92,0-5.29,1.77-5.29,4S23.52,99.06,26.44,99.06Z"/><path class="cls-1" d="M180.75,108.59H25.94c-2.64,0-4.79,1.77-4.79,4s2.15,3.95,4.79,3.95H180.75c2.65,0,4.8-1.77,4.8-3.95S183.4,108.59,180.75,108.59Z"/><path class="cls-1" d="M261,126l-22.93-9.19v-5a27.1,27.1,0,0,0,13.11-16.38,13.95,13.95,0,0,0,8.18-25.2V59.67A35.42,35.42,0,0,0,224,24.29h-2.62a35.44,35.44,0,0,0-8.49,1V4A3.94,3.94,0,0,0,208.94,0H197.21a3.95,3.95,0,1,0,0,7.89H205V28.33a35.42,35.42,0,0,0-18.84,28H7.89V7.89H184A3.95,3.95,0,1,0,184,0H4A4,4,0,0,0,0,4V60.32a4,4,0,0,0,4,3.95H186v5.84a15.27,15.27,0,0,0-1.82,1.58H4a4,4,0,0,0-3.95,4V132A3.94,3.94,0,0,0,4,136H171a31.28,31.28,0,0,0-5.83,18.76v19.63a4,4,0,0,0,4,4H184a3.95,3.95,0,1,0,0-7.89H173V154.72c0-16.41,12.91-21.12,13.44-21.31l.18-.06,21.61-8.46a3.49,3.49,0,0,0,.32.35l11.33,11a4,4,0,0,0,2.76,1.12h.06a4,4,0,0,0,2.78-1.21l11.09-11.5,21.56,8.65.19.07c.55.19,13.47,4.9,13.47,21.32v15.68h-75.2a4,4,0,0,0,0,7.9h79.15a4,4,0,0,0,4-4V154.73C279.73,137.06,267.55,128.22,261,126Zm-8.8-50.52a6.06,6.06,0,0,1,0,11.92ZM193.88,59.67a27.52,27.52,0,0,1,27.49-27.48H224a27.51,27.51,0,0,1,27.48,27.48v6.45s0,0,0,0l-.11-.15-.12-.14-.14-.15a1.14,1.14,0,0,1-.11-.11l-.17-.15-.12-.1-.18-.13-.14-.09-.18-.11-.17-.09-.17-.08-.21-.08-.15-.06-.24-.07-.11,0c-8.59-2-11.28-13.06-11.3-13.16A4,4,0,0,0,230.79,50c-10.39,14.36-33.25,14.5-33.56,14.5h0a2.69,2.69,0,0,0-.4,0h-.12l-.27,0-.17,0-.21,0-.19.07-.17.06-.21.1-.14.07-.2.12-.12.08-.19.13-.12.09-.15.15a.69.69,0,0,0-.13.11l-.13.15-.12.13s-.08.1-.12.15l-.11.15-.06.1V59.67Zm-.61,15.75v12a6.05,6.05,0,0,1,0-12Zm14.12,41.33L183.87,126a22.18,22.18,0,0,0-4.47,2.16,3.52,3.52,0,0,0-.66-.06H7.89V79.59H180.35a13.56,13.56,0,0,0-.13,1.82,14,14,0,0,0,14,14h.11a27.11,27.11,0,0,0,13.1,16.38v5Zm22.8,2.76h0V120l-7.6,7.88-7.3-7.11v-6.2a27.87,27.87,0,0,0,5,.46h5a27,27,0,0,0,4.95-.46Zm-4.95-12.41h-5A19.1,19.1,0,0,1,201.16,88V72.16c6.89-.6,21.24-3,31.46-12.43,2.09,4.13,5.73,9.11,11.7,11.55V88A19.1,19.1,0,0,1,225.24,107.1Z"/></g></g></svg>