<svg xmlns="http://www.w3.org/2000/svg" viewBox="0 0 280 178"><defs><style>.cls-1{fill:#fff;}</style></defs><title>buy-icon</title><g id="Layer_2" data-name="Layer 2"><g id="Layer_1-2" data-name="Layer 1"><path class="cls-1" d="M140.26,28.32a57.46,57.46,0,0,1,26.07-13.55c37.86-8.38,72.31,26.85,66,67.67a59.67,59.67,0,0,1-11.53,27.72c-1.65,2.14-1.39,3.17.44,4.87,19.12,17.67,38.15,35.45,57.26,53.14,1.83,1.69,2.1,2.85.38,4.92-4.16,5-4.07,5.11-8.61.88q-27.88-26-55.74-52.08c-1.86-1.75-3-2.07-5.1-.36-6.27,5.19-13.57,8.11-21.26,9.82-2.58.58-3.42,1.66-3.39,4.53.16,12.8,0,25.61.13,38.42,0,2.86-.74,3.71-3.44,3.7q-65.64-.12-131.28,0c-2.65,0-3.81-.8-3.46-3.7.31-2.58-.51-3.42-3.06-2.6-3.08,1-6.36,1.3-9.44,2.31s-4.12-.13-4.8-3.32Q18.57,119.79,7.49,69C5.12,58,2.82,47,.28,36.08c-.64-2.72-.33-3.67,2.44-4.34Q67,16.14,131.2.2c2.7-.67,3.32.35,3.8,2.77C136.63,11.22,138.4,19.44,140.26,28.32ZM128.82,39.87c-23.39,0-46.77,0-70.15-.08-3,0-2.91,1.57-2.9,3.81q0,34.4,0,68.79c0,17.29.07,34.59-.07,51.88,0,3.24.87,4.23,3.84,4,3.7-.25,7.43-.06,11.15-.06H171.44c4.56,0,4.56,0,4.56-5,0-8.84-.08-17.68.05-26.52,0-2.71-.33-4.13-3.35-4.33a45.47,45.47,0,0,1-17.64-4.89c-2.59-1.32-3-.31-3,2.25.09,8.84,0,17.68.08,26.51,0,2.54-.47,3.61-3.13,3.6q-32.39-.17-64.76,0c-2.48,0-3.29-.74-3.27-3.45.12-12.55-.1-25.11.14-37.66.08-3.85-1.07-4.76-4.45-4.56-5.18.29-10.39.07-16.56.07,6.21-7.13,11.66-13.38,17.1-19.64C89.17,80.89,101.12,67.22,113,53.47c1.59-1.85,2.56-2,4.19-.08,1.77,2.12,3.43,4.44,6,6.21a68.74,68.74,0,0,1,7.55-19.47A17.85,17.85,0,0,0,128.82,39.87Zm57.48,57c-5.4,0-10.8.15-16.19,0-2.72-.1-3.53.9-3.44,3.75.18,6,.12,12,0,18.06,0,2.06.59,3,2.52,3.33A47.21,47.21,0,0,0,193,119.57c1.81-.68,2.61-1.58,2.6-3.82q-.12-42.46,0-84.94c0-2.35-.76-3.39-2.8-4.06-18.57-6.16-35-2.67-49,12.21-2,2.17-2.27,3.4-.11,5.76C158.4,60.87,173,77.18,187.58,93.45c.79.89,1.9,1.55,2.25,3.21C188.59,96.72,187.44,96.82,186.3,96.82ZM46.76,34.56c0-2.82-.33-3.91-3.33-3.11-10.1,2.7-20.26,5.18-30.42,7.63-2.33.57-2.69,1.66-2.17,4.06q12.81,58.47,25.38,117c.5,2.33,1.35,3,3.38,2.47a19.73,19.73,0,0,1,3.16-.72c3-.27,4.06-1.74,4-5.17-.18-20.23-.09-40.46-.09-60.7C46.71,75.54,46.67,55.05,46.76,34.56Zm38.5,70c4.62,0,4.62,0,4.62,5,0,12.43.05,24.85,0,37.27,0,2.55.55,3.82,3.2,3.61a47.48,47.48,0,0,1,7.91,0c2.66.23,3.19-1,3.14-3.55-.14-6.66,0-13.33-.1-20,0-2.57.5-3.67,3.15-3.58,5.87.19,11.75.17,17.62,0,2.45-.07,3,.93,3,3.36-.12,6.65.07,13.32-.09,20-.07,2.72.47,4,3.33,3.77a62.73,62.73,0,0,1,9,0c2.32.13,3.13-.68,3.09-3.25-.15-7.81-.16-15.63,0-23.44a7.6,7.6,0,0,0-2.6-6.24A58.28,58.28,0,0,1,122,78c-.28-4.42-1.51-7.73-4.57-10.66-1.73-1.66-2.58-1.84-4.2.05C106,75.86,98.54,84.22,91.18,92.64,88,96.26,84.89,99.92,81.12,104.3,83.15,104.41,84.2,104.49,85.26,104.51ZM162.72,82.2q-12.37-13.7-24.78-27.34c-2.58-2.83-3-2.68-4.36,1.19-7.63,22.15.5,46.93,19.35,59.29,2.39,1.56,3,1.13,2.92-1.78-.11-8.45,0-16.91-.08-25.37,0-2.31.63-3.28,2.86-3.08,1.85.16,3.72,0,6.28,0C163.85,83.7,163.34,82.89,162.72,82.2Zm60.12-16.15c-1.38-11.88-10.12-27-16.29-29.7V111C219.29,98.31,224.91,83.84,222.84,66.05ZM51.06,30.44H91.71c12.23,0,24.47-.05,36.7,0,2.48,0,3.11-.64,2.42-3.29-1.05-4.06-1.87-8.21-2.55-12.36-.5-3-1.43-3.92-4.54-3.11C109.55,15.43,95.28,18.78,81,22.28c-10,2.46-20,5-30,7.45Z"/></g></g></svg>