<svg xmlns="http://www.w3.org/2000/svg" viewBox="0 0 280 170"><defs><style>.cls-1{fill:#fff;}</style></defs><title>design-icon</title><g id="Layer_2" data-name="Layer 2"><g id="Layer_1-2" data-name="Layer 1"><path class="cls-1" d="M58.93,128.65c1.56.95,1.9,2.5,1.89,4.41-.06,8.27-.1,16.54,0,24.81,0,3.43-1.26,4.77-4.17,4.61-2.41-.13-4.83,0-7.24,0S47,164.3,46.94,166.3s.48,3,2.41,2.95q22-.09,44.1,0c2.07,0,2.28-1.27,2.25-3.11s-.07-3.64-2.28-3.66c-2.75,0-5.49-.11-8.23,0s-4-1.14-4-4.4q.07-26.49,0-53c0-3.42,1.68-4.85,4.23-5,4.38-.2,8.78-.18,13.16,0,2.53.1,4.32.6,3.87,4.87-.65,6.17-.1,12.5-.19,18.76-.06,3.42,2,2.59,3.65,2.6s3.76.8,3.62-2.61c-.3-7.24.53-14.51-.45-21.73,0-.12-.08-.25-.06-.36.88-4,3.85-3,6.12-3,1.92,0,4.92-.56,4.64,3.4-.84,11.63-.25,23.26-.32,34.89a6.73,6.73,0,0,0,6.74,6.73c2.3-.06,4.61.08,6.91,0a3.85,3.85,0,0,1,3.49,1.58c.61.14-1,.93.18.86,1.94-.1,4.1-1.08,6-.95,1.19.08,2.95.27,2.31,3-2.19,6.14-4.49,12.23-6.52,18.43-.84,2.55-1.86,3.45-4.34,3-5.76-1-5.79-.8-4.51-7.12.87-4.27,1.7-8.54,2.63-12.79.45-2.09,0-3.08-2-2.92-1.53.12-3.07,0-4.6,0-4.88,0-6.75-2-6.9-7.63-.12-4.51,0-9,0-13.53,0-6.88-.1-13.77,0-20.65.06-2.7-.77-3.38-3-3.36-5.69.06-5.7-.06-5.7,6.62,0,5.76-.09,11.52,0,17.28.06,2.49-.7,3.24-2.83,3.17-6.89-.2-5.56.72-5.66-6.25q-.12-8.27,0-16.53c0-2.09-.55-2.88-2.43-2.83-4.61.11-9.21.1-13.82,0-1.74,0-2.27.72-2.27,2.63q.06,25.92,0,51.84c0,2,.59,2.66,2.29,2.61,3.29-.1,6.58.06,9.87-.06,1.82-.06,2.52.64,2.5,2.79-.12,8.66.61,6.92-5.71,7-14.58.1-29.16,0-43.74.1-2.72,0-3.89-.81-3.45-4a7.32,7.32,0,0,0,0-1.87c-.39-3,.51-4.36,3.36-4,2.5.27,5-.11,7.56.1,2.33.19,3-.79,3-3.4C58.76,147.42,58.88,138,58.93,128.65Z"/><path class="cls-1" d="M58.93,128.65c0-7.64-.27-15.29-.06-22.91.09-3.45-.93-4.13-3.73-4.11-17.44.15-34.88,0-52.31.12-2.56,0-3.61-.18-2.2-3.58Q20.08,51.14,39.26,4C40.45,1,41.85,0,44.69,0q26.48.24,53,0c3.16,0,4.6,1.23,5.86,4.35C112.17,25.71,121,47,129.74,68.3c.9,2.19,6,3.79,7.61,2.31,1-.91.59-2.33.59-3.53,0-13.78,0-27.56,0-41.34,0-8.83,2.34-11.56,9.91-11.57h106.6c6.64,0,9.16,2.85,9.17,10.4,0,14.15.09,28.31-.06,42.46,0,3.2.83,4.21,3.53,3.92a46.46,46.46,0,0,1,6.57,0c4.32.16,6.28,2.3,6.29,7.19q.06,30.81,0,61.62c0,5.08-1.8,7-6.16,7.09-5.88.08-5.87.08-4.47,6.77.87,4.13,1.67,8.29,2.58,12.41.47,2.12.23,3.17-2,3.35-6.41.53-6.37.63-8.93-6.15-2-5.26-3.43-10.79-6-15.78-1.12-.74-2.36-.37-3.53-.37q-50.58,0-101.15,0c-2,0-4.06.44-5.95-1.21-.88-.77-2.35-.39-3.52,0a8.55,8.55,0,0,1-4.23.23c-3.06-2.06-6.41-1-9.63-1-5.54-.08-7.9-2.63-7.91-9.11,0-10.64-.13-21.3.07-31.94.06-2.94-1-3.75-3.13-3.93a15.27,15.27,0,0,0-2.62-.05c-3.39.33-3.57.57-3.56,4.52q0,9.21,0,18.42c0,4.12-.39,4.56-3.88,4.58s-4-.39-4-4.41c0-6-.09-12,0-18,.05-2.26-.74-3.25-2.56-3.43a78.48,78.48,0,0,0-14.46,0c-2,.17-2.82,1.36-2.81,3.73q.07,26.31,0,52.61c0,2.69,1,3.52,3.22,3.43a67.25,67.25,0,0,1,7.24,0c2.75.18,4,1.8,4,4.77,0,2.46-.9,3.52-3.2,3.49-10.1-.1-20.19,0-30.28,0-4.5,0-9-.06-13.49,0-1.92,0-3.51-.08-3.65-2.94-.16-3,1-5,3.53-5.26a47.16,47.16,0,0,1,7.23-.06c2.3.11,3.09-1,3.07-3.57-.08-8.39,0-16.79,0-25.18A9.56,9.56,0,0,0,58.93,128.65Zm67.61-36.31c3.58,0,3.64,0,2.15-3.69q-15.52-37.95-31-75.9c-.94-2.32-2.15-3-4.29-2.95-14.59.1-29.18.14-43.77,0-2.64,0-3.83,1-4.9,3.66Q29.41,51.32,13.87,89.05c-1.36,3.29-.28,3.34,2.1,3.33,18.43-.07,36.86,0,55.29,0Zm22.25-68.42c-1.69,0-3.22-.28-3.2,2.72.11,13.9.07,27.81,0,41.72,0,2,.67,2.61,2.33,2.57,3.29-.09,6.58-.07,9.87,0,4.78.07,6.76,2.3,6.9,7.79.08,2.87.11,5.76,0,8.64-.08,2.07.5,2.86,2.41,2.86q32.58-.09,65.15,0c1.7,0,2.36-.63,2.32-2.59-.08-3.38-.1-6.77.07-10.15.22-4.47,2.21-6.53,6.06-6.55s7.91-.19,11.84.06c2.78.17,3.8-.61,3.75-4.08-.19-13-.17-26.06,0-39.08,0-3.19-.84-4-3.53-3.95-17.22.13-34.44.06-51.66.06Zm82.83,113.74c2.29,0,3-.73,3-3.38q-.18-15.8,0-31.57c0-2.74-.58-3.67-3.1-3.66q-31.92.17-63.84,0c-2.29,0-3,.75-3,3.39.12,10.39.14,20.8,0,31.19-.05,3.06.62,4.08,3.43,4,10.42-.19,20.84-.07,31.26-.07C210.12,137.6,220.87,137.54,231.62,137.66ZM242,135c0,1.75,0,3.22,2.17,3.18,8.66-.16,17.31-.28,26-.24,2.26,0,2.72-1,2.69-3.33q-.33-25.71-.45-51.43c0-2.66-.75-3.41-3-3.37-8.11.13-16.23.16-24.33,0-2.6-.06-3.11,1.11-3.08,3.75.11,8.51,0,17,0,25.54S242,126.34,242,135ZM157.1,82.83c0-2.27-.61-3.07-2.63-3q-8.55.18-17.1,0c-2.48,0-2.46,1-1.54,3.11,2.28,5.28,4.39,10.65,6.66,15.93.91,2.11.58,2.93-1.56,2.88-3.94-.09-7.89.07-11.83-.06-2-.07-2.66.74-2.64,3,.08,10,.1,20,0,30,0,2.53.78,3.2,2.87,3.17q12.5-.15,25,0c2.17,0,2.83-.83,2.8-3.26-.11-8.64,0-17.28,0-25.92S157,91.46,157.1,82.83Z"/><path class="cls-1" d="M67.24,130.88c0-8.52.13-17-.07-25.55-.07-3.18,1-3.87,3.44-3.67,2.08.17,4-.44,4,3.47q-.26,25.92,0,51.85c0,3.76-1.86,3.12-3.79,3.2-2.13.1-3.74.16-3.65-3.38C67.4,148.16,67.24,139.52,67.24,130.88Z"/></g></g></svg>